<svg width="346" height="156" viewBox="0 0 346 156" fill="none" xmlns="http://www.w3.org/2000/svg">
<rect x="7.49664" y="33.7166" width="33" height="311" transform="rotate(-69.5669 7.49664 33.7166)" fill="#FFD770"/>
<path fill-rule="evenodd" clip-rule="evenodd" d="M317.896 117.42C316.038 114.664 313.333 112.441 309.981 111.192C301.442 108.011 291.94 112.355 288.759 120.894C285.577 129.433 289.921 138.935 298.46 142.116C301.812 143.365 305.312 143.454 308.52 142.585L339.361 139.746L317.896 117.42Z" fill="#FFF3D6"/>
<rect y="30.9236" width="33" height="23" rx="4" transform="rotate(-69.5669 0 30.9236)" fill="#E79E9C"/>
<path fill-rule="evenodd" clip-rule="evenodd" d="M328.755 128.491C326.84 129.785 325.296 131.668 324.428 133.999C323.559 136.33 323.496 138.764 324.097 140.996L339.421 139.585L328.755 128.491Z" fill="#1E120B"/>
</svg>
