<svg width="256" height="210" viewBox="0 0 256 210" fill="none" xmlns="http://www.w3.org/2000/svg">
<g filter="url(#filter0_d_1739_1749)">
<rect x="27.549" width="270.209" height="163.119" rx="30" transform="rotate(9.72325 27.549 0)" fill="#942624"/>
<rect x="57.6678" y="17.3931" width="204.962" height="85.8145" rx="20" transform="rotate(9.72325 57.6678 17.3931)" fill="#432818"/>
<rect x="83.612" y="29.7539" width="149.644" height="20.5671" rx="10" transform="rotate(9.72325 83.612 29.7539)" fill="#942624"/>
<rect x="78.2221" y="61.21" width="149.644" height="37.5882" rx="10" transform="rotate(9.72325 78.2221 61.21)" fill="#942624"/>
<circle cx="194.93" cy="100.276" r="12.4112" transform="rotate(9.72325 194.93 100.276)" fill="#FFF9EB"/>
<circle cx="102.659" cy="84.4653" r="12.4112" transform="rotate(9.72325 102.659 84.4653)" fill="#FFF9EB"/>
<path fill-rule="evenodd" clip-rule="evenodd" d="M142.257 132.624L216.608 145.364L234.173 200.9L133.514 183.652L142.257 132.624ZM142.257 132.624L67.9067 119.884L32.8542 166.404L133.513 183.652L142.257 132.624Z" fill="#FFF9EB"/>
<circle cx="74.8525" cy="135.465" r="6.3829" transform="rotate(9.72325 74.8525 135.465)" fill="#432818"/>
<circle cx="6.3829" cy="6.3829" r="6.3829" transform="matrix(-0.985635 -0.168889 -0.168889 0.985635 211.541 152.411)" fill="#432818"/>
<circle cx="61.6928" cy="157.675" r="6.3829" transform="rotate(9.72325 61.6928 157.675)" fill="#432818"/>
<circle cx="6.3829" cy="6.3829" r="6.3829" transform="matrix(-0.985635 -0.168889 -0.168889 0.985635 216.556 177.735)" fill="#432818"/>
</g>
<defs>
<filter id="filter0_d_1739_1749" x="0.630859" y="4.63086" width="292.615" height="205.149" filterUnits="userSpaceOnUse" color-interpolation-filters="sRGB">
<feFlood flood-opacity="0" result="BackgroundImageFix"/>
<feColorMatrix in="SourceAlpha" type="matrix" values="0 0 0 0 0 0 0 0 0 0 0 0 0 0 0 0 0 0 127 0" result="hardAlpha"/>
<feOffset dy="4"/>
<feGaussianBlur stdDeviation="2"/>
<feComposite in2="hardAlpha" operator="out"/>
<feColorMatrix type="matrix" values="0 0 0 0 0 0 0 0 0 0 0 0 0 0 0 0 0 0 0.25 0"/>
<feBlend mode="normal" in2="BackgroundImageFix" result="effect1_dropShadow_1739_1749"/>
<feBlend mode="normal" in="SourceGraphic" in2="effect1_dropShadow_1739_1749" result="shape"/>
</filter>
</defs>
</svg>
