<svg width="381" height="394" viewBox="0 0 381 394" fill="none" xmlns="http://www.w3.org/2000/svg">
<g filter="url(#filter0_f_1736_309)">
<path fill-rule="evenodd" clip-rule="evenodd" d="M270.952 11.2006C273.38 8.79059 277.112 5.08517 281.788 5.00215C284.994 4.9452 285.946 6.0295 287.046 7.28429C287.962 8.32753 288.98 9.48863 291.484 10.2097C291.706 10.2734 291.893 10.3399 292.048 10.409C295.222 10.7371 298.532 11.2546 301.912 11.9718C321.893 16.2104 336.781 25.8169 335.166 33.4285C333.552 41.0401 316.045 43.7744 296.065 39.5357C276.085 35.297 261.196 25.6905 262.811 18.0789C263.405 15.2767 266.154 13.1355 270.387 11.76C270.566 11.5838 270.755 11.3965 270.952 11.2006ZM246.879 355.387C309.232 341.702 355.898 286.14 355.898 219.679C355.898 142.945 293.693 80.7406 216.96 80.7406C180.348 80.7406 147.044 94.9014 122.226 118.045C114.718 131.842 112.89 147.868 111.735 162.884C111.061 171.647 116.005 175.25 120.775 178.725C125.352 182.06 129.768 185.277 128.905 192.823C127.904 201.58 122.495 204.081 114.536 207.76C108.491 210.554 100.975 214.028 92.803 221.44C80.2407 232.834 81.6361 241.126 83.3539 251.333C83.9218 254.708 84.525 258.292 84.6705 262.267C100.344 310.989 142.186 347.974 193.645 356.669C197.823 355.472 201.517 353.045 205.22 350.614C210.998 346.819 216.795 343.012 224.478 343.841C231.395 344.588 235.166 347.518 238.897 350.417C241.298 352.283 243.683 354.136 246.879 355.387ZM216.96 60.7406C177.835 60.7406 142.012 74.8774 114.32 98.3217C112.659 99.3229 110.907 100.588 109.093 102.127C103.947 106.493 100.128 110.842 97.2568 115.117C72.825 143.063 58.0217 179.642 58.0217 219.679C58.0217 226.405 58.4395 233.034 59.2506 239.54C59.0279 240.95 59.03 242.522 59.3424 244.334L60.0292 245.009C72.1594 320.749 137.802 378.617 216.96 378.617C304.739 378.617 375.898 307.458 375.898 219.679C375.898 192.099 368.873 166.16 356.515 143.553C353.679 134.251 355.758 128.069 357.667 122.393C359.247 117.692 360.711 113.339 359.167 107.85C355.205 93.7609 343.318 77.0306 323.946 79.6722C319.727 80.2475 316.615 80.9064 314.032 81.4532C306.006 83.1523 303.089 83.7697 287.954 77.4386C266.586 66.7531 242.475 60.7406 216.96 60.7406ZM79.1547 388.303C88.3946 388.303 95.885 380.812 95.885 371.572C95.885 362.332 88.3946 354.842 79.1547 354.842C69.9148 354.842 62.4244 362.332 62.4244 371.572C62.4244 380.812 69.9148 388.303 79.1547 388.303ZM34.5236 282.834C28.6431 261.251 18.3607 245.257 11.5572 247.11C4.75371 248.964 4.00546 267.964 9.88595 289.547C15.7664 311.131 26.0488 327.125 32.8524 325.271C39.6559 323.418 40.4041 304.418 34.5236 282.834Z" fill="#794621" fill-opacity="0.61"/>
</g>
<defs>
<filter id="filter0_f_1736_309" x="0.921875" y="0" width="379.976" height="393.302" filterUnits="userSpaceOnUse" color-interpolation-filters="sRGB">
<feFlood flood-opacity="0" result="BackgroundImageFix"/>
<feBlend mode="normal" in="SourceGraphic" in2="BackgroundImageFix" result="shape"/>
<feGaussianBlur stdDeviation="2.5" result="effect1_foregroundBlur_1736_309"/>
</filter>
</defs>
</svg>
